<?xml version="1.0" encoding="UTF-8"?>
<svg id="a" data-name="Layer 1" xmlns="http://www.w3.org/2000/svg" viewBox="0 0 32.32 32.32">
  <path d="m32.31,16.16c0,8.92-7.23,16.15-16.15,16.15-1.71,0-3.36-.27-4.9-.76-.99-.32-1.95-.76-1.95-.76C3.81,28.21,0,22.63,0,16.16,0,7.24,7.24,0,16.16,0s16.15,7.23,16.15,16.15Z" style="fill: #fff;"/>
  <path d="m16.16,0C7.24,0,0,7.24,0,16.16,0,22.63,3.81,28.21,9.31,30.79V5.83c1.23-.63,1.95,0,1.95,0v25.72c1.54.49,3.19.76,4.9.76,8.92,0,16.15-7.23,16.15-16.15S25.08,0,16.16,0Zm4.73,18.36s-.39-.1-1.04-.22c-1.79-.34-5.54-.86-8.59-.04V6.89s8.78.93,9.63,2.67v8.8Z" style="fill: #ec1c24;"/>
  <path d="m28.09,17.37s-.9,1.8-4.85,2.39l-.13-.1c-1.24-.96-1.63-3.77-1.7-5.32,1.57,1.29,4.19,3.07,6.68,3.03Z" style="fill: #f6a2a0;"/>
</svg>