<svg xmlns="http://www.w3.org/2000/svg" data-name="Layer 1" viewBox="0 0 200 200"><circle cx="100" cy="100" r="75.94" style="fill:#fff"/><path d="M100.12 24.43c-41.79 0-75.67 33.88-75.67 75.67 0 30.3 17.83 56.46 43.58 68.52V51.7c5.76-2.95 9.12 0 9.12 0v120.5a75.76 75.76 0 0 0 22.97 3.55c41.77 0 75.65-33.88 75.65-75.65s-33.88-75.67-75.65-75.67Zm22.17 85.98s-1.84-.45-4.9-1.02c-8.37-1.6-25.92-4.03-40.23-.17V56.69s41.12 4.34 45.13 12.51v41.21Z" style="fill:#ec1c24"/><path d="M155.99 105.75s-4.23 8.44-22.7 11.2l-.62-.48c-5.8-4.49-7.61-17.64-7.98-24.91 7.34 6.03 19.64 14.38 31.3 14.19Z" style="fill:#f6a2a0"/></svg>